<svg id="Layer_1" data-name="Layer 1" xmlns="http://www.w3.org/2000/svg" width="50" height="49" viewBox="0 0 49.9999 49.0453"><title>logo3</title><path d="M26.5647.0458l-.999-.0443A24.5,24.5,0,0,0,.0024,23.39h0l-.0007.0176,0,.0035-.0007.017,0,.0035L0,23.4486V23.45l-.0006.0165,0,.0041-.0007.0166,0,.0039-.0006.0163V23.51l-.0006.0158,0,.0044-.0006.016,0,.005-.0006.0149v.004l-.0006.0148V23.59l-.0006.0157,0,.0053,0,.0139,0,.0055,0,.0134,0,.0057-.0005.0151,0,.0059-.0005.0128,0,.0074,0,.0118,0,.0068,0,.0144,0,.0066,0,.0117,0,.0085,0,.0111,0,.0068,0,.0141,0,.0074,0,.0105,0,.01,0,.01,0,.0081,0,.0132,0,.0081,0,.009,0,.0122,0,.0081,0,.0087,0,.0125,0,.0091,0,.0077,0,.0137,0,.0071,0,.0113,0,.01,0,.01v.0058l0,.0166v.0047l-.0006.0326v.0041l0,.0179v.0045l-.0006.0329v.003l0,.0194v.0033l-.0005.0332V24.15l0,.02v.0021l-.0005.0341v.0018l0,.0211v.0021l-.0006.0577V24.29l-.0006.094v.083c0,.0115,0,.0231,0,.0347v.083l0,.0339v.0255l0,.0327v.0054l0,.0152v.0949l0,.0125v.0247l0,.0157v.0043l0,.0169v.001l0,.0172v.0025l0,.0159a2.5,2.5,0,0,0,2.3863,2.455c.051.0022.1025.003.1542.0021a2.5,2.5,0,0,0,2.4588-2.5405c-.0065-.4-.0008-.806.017-1.2074A19.5221,19.5221,0,0,1,25.3438,4.9965l.999.0444A2.5,2.5,0,0,0,26.5647.0458ZM4.93,31.8676a2.5008,2.5008,0,0,0-2.3428,3.62,24.5517,24.5517,0,0,0,2.2248,3.6016l0,0,.0217.0291,0,0,.066.088v0l.0775.1023,0,0L5,39.3388l0,0,.0222.029h0l.0223.0291h0l.0223.029v0c.0337.0436.0673.0869.1013.13l0,0,.0223.0284.0006.0007.022.0281.0007.0009.0219.0277.0011.0015.0215.0273.0015.0018.0218.0275.0006.0008.0223.028,0,.0007.0225.0282,0,0,.0225.0282.0005.0006.0109.0136,0,.0006.0227.0281,0,.0005.0228.0283,0,0,.0225.0279.0009.0011.0223.0275.0009.0011.0224.0275.0007.001.0225.0275.0009.0011.0225.0275.0006.0008.011.0134,0,0,.0112.0137.0009.0011.011.0133,0,0,.0114.014,0,0,.0109.0132.0008.001.0224.0271.0012.0014.0112.0135,0,0,.0105.0127.0017.002.0222.0267.001.0012.0224.0268.0015.0018.0222.0265.0014.0016.0223.0266.0014.0017.0222.0264.0015.0017.0106.0126,0,.0006.0112.0133.0014.0016.0106.0125.0006.0007.0114.0134.001.0012.01.0123.0012.0014.0112.0131.001.0013.01.0122.0013.0014.0113.0134,0,0,.0109.0128.0014.0016.0113.0132v0l.011.0128.0016.0018.0225.0263.0014.0016.0224.026.0019.0022.0106.0123,0,.0006.0112.0129.0018.002.01.0118.0011.0012.0111.0128.0017.002.01.0114.0016.0018.0108.0124L6,40.5649l.0089.01.0024.0028.0106.0122.0022.0025.0091.01.0024.0027.011.0126.0008.0009.01.0116.0023.0026.0109.0124.0013.0014.01.0112.0025.0028.0109.0124.0007.0008.01.0116.0025.0028.022.0249.0024.0028.022.0247.0025.0029.0109.0122h0l.0114.0128.0019.0022.01.0116.001.0011.0109.0122.0026.003.0094.0105.0018.002.0108.0121.0025.0028.01.0107.0016.0017.011.0123.0024.0026.009.01.0026.0029.0108.012.0019.0021.0093.01.0027.003.0106.0117.0024.0027.009.01.0028.0031.0108.0119.0017.0019.0092.01.0032.0036.01.011.0026.0028.009.01.0034.0037.01.0109.0009.001L6.3883,41l.0036.0039.0081.0089.0033.0036.01.0109.0034.0037.009.01.0019.0021.0108.0118.0029.0031.0089.01.0026.0028.0107.0116.0029.0032.0086.0093.0028.003.0106.0115.0031.0034.0081.0087.0035.0039.0105.0113.0027.0028.0085.0093.0033.0035.01.0113.0028.003.0084.009.0036.0039.0106.0113.002.0022.009.01.0035.0037.01.0108.0027.003.0087.0092.0041.0044.009.01.0024.0026.01.01.0041.0044.0083.0088.0027.0029.01.0111.0039.004.0081.0086.003.0032.01.0109.0038.0041.0083.0087.0029.0031.0105.011.0037.0039.0083.0087.0029.0031.0106.0112.0034.0036.0082.0086.0035.0036.01.011.0033.0035.0083.0086.0034.0036.01.0109.0033.0035.0081.0084.0039.0042.01.01.0045.0047.0074.0078.0041.0042.0092.01.004.0041.0087.009.0036.0037.01.01.0022.0023.01.0106.0036.0037.0086.0089.003.0031.01.0107.0039.0041.0078.008.0036.0037.0105.0108.0035.0036.0085.0087.0032.0033.0106.0109.0036.0037.008.0082.0037.0037.0106.0109.0033.0033.0083.0086.0036.0037.0109.011.0027.0028.0083.0084.0043.0043.01.0105.0034.0035.0079.0081.0043.0043.01.01.0042.0042.0075.0076.0044.0045.0088.0088.0051.0051.0076.0077.0049.005.0077.0078.0051.0051.0082.0082.0051.0051.0071.0071.0051.0052.0092.0092.0045.0045.0073.0074.0039.0039.01.01.0047.0046.0072.0072.0042.0043.01.01.0047.0046.0071.0071.0042.0042.01.01.005.005.0066.0065.0048.0047.01.01.0041.004.0074.0074.0044.0043.01.01.0033.0033.0086.0084.0037.0037.0108.0106.0033.0033.008.0078.0046.0045.0083.0083.0058.0056.0075.0074.0049.0048.008.0078.005.0049.0086.0084.0048.0047.0072.0071.0059.0057.0086.0084.0048.0046.0072.0071.0042.0041.01.01.0046.0045.0071.0069.0048.0045.01.01.0049.0047.0068.0066.0047.0045.01.01.0044.0042.0074.0072.0046.0044.01.01.0041.004.0074.0071.0047.0045.01.01.0045.0043.0069.0066.0053.0052.0094.009.0048.0045.0074.0071.0048.0046.0088.0084.0055.0053.0075.0071.0053.0051.0072.0069.007.0065.007.0067.0059.0056.0058.0055.0088.0084.0063.006.0061.0058.0055.0052.0081.0076.0072.0068.0059.0056.006.0056.0056.0053.01.009.006.0056.0058.0055.0053.005.01.0093.0057.0054.0059.0055.0058.0054.01.0091.0058.0054.0058.0054.0057.0053.0091.0085.0058.0055.0068.0063.0053.0049.0072.0067.0083.0077.0061.0057.0054.0051.0072.0066.008.0075.0066.0061.0055.005.0069.0065.0077.007.007.0065.0056.0052.0063.0058.0082.0076.0073.0066.0055.0052.0059.0054.0083.0076.0073.0067.0057.0052.0063.0058.0055.0051.01.009.0061.0056.005.0045.0066.0061.0094.0086.0061.0055.0058.0053.0059.0054.01.009.0057.0052.0056.0051.0064.0058.0058.0053.01.0091.005.0046.0068.0061.0046.0042.0114.01.0045.004.0069.0063.0047.0042.0114.01.0047.0042.0067.0061.0055.0049.01.0088.0057.0051.0066.0058.0055.005.009.0081.0069.0062.0061.0054.0055.0049.01.0087.006.0053.0065.0059.0053.0047.0095.0084.0065.0058.0064.0057.0055.0049.0059.0053.01.0087.0065.0058.0052.0046.0065.0058.01.0085.0064.0057.0051.0045.0066.0058.0051.0046.011.01.0052.0046.0066.0058.0046.0041.0119.01.0045.0039.0068.006.005.0044.0115.01.0046.0041.0069.006.0052.0045.01.0088.006.0053.0063.0055.0056.0049.01.0088.006.0052.0063.0055.0054.0047.0092.008.0071.0062.0059.0051.0064.0055.0064.0055.0094.0082.0062.0053.0056.0048.0062.0055.01.0082.0071.0062.0045.0039.0072.0061.01.0083.0063.0054.0055.0048.0063.0054.0073.0062.0089.0076.0057.0049.0066.0056.0062.0054.0095.0081.0059.005.0063.0054.0066.0056.01.0083.0053.0045.0071.006.0047.0041.0111.0094.0054.0046.0068.0057.0055.0047.01.0087.0058.0049.007.0059.0046.0039.012.01.0046.0038.007.0059.0049.0041.0139.0117.0025.0021.0075.0063.0045.0038.0068.0057.0057.0048.0113.0095.0045.0037.0074.0062,0,0,.0166.0138.0042.0035.0075.0062.0028.0024.014.0117.0044.0036.0074.0061.0031.0026.0141.0118.0037.003.0076.0062.0039.0033.0132.0109.0042.0035.0073.0061.0041.0033.0136.0112.0034.0028.0079.0065.0032.0027.0153.0125.0022.0018.0084.0069.0023.0019.0173.0142.0007,0,.0079.0065.004.0033.0152.0124.0019.0016.0078.0063.0037.0031.0247.02.0047.0038.0072.0058.01.0081.0069.0055.0047.0039.0075.006.0035.0029.0134.0108.0046.0037.0075.0061.0033.0026.0141.0114.0037.003.0078.0062.004.0032.0133.0107.004.0033.0079.0063.0031.0025.0155.0124.0021.0017.0085.0067.0029.0024.0147.0117.0034.0027.0079.0063.0035.0028.0168.0133,0,0,.0083.0066.0037.0029.0254.02.0038.003.0255.02.0036.0028.0256.02.0037.0029.008.0064.0018.0013.0155.0122.0042.0033.0078.0062.0024.0018.0157.0123.003.0023L9.412,43.8l.0025.002.0158.0123.0027.0021.0083.0065.0033.0026.0149.0116.0029.0022.0084.0065.0029.0023.0156.012.0027.0021.0081.0063.0034.0027.0158.0122.0021.0016.0079.0061.0041.0031.017.0131.0005,0,.008.0062.004.003.0256.02.0038.0029.0257.02.0039.003.0081.0062.002.0015.0158.012.0036.0028.0085.0065.001.0007.0162.0123.0043.0033.0075.0057.0047.0035.0134.01.0039.0029.0081.0062.0035.0026.015.0113.0028.0022.0085.0063.0033.0025.015.0114.0032.0023.0082.0062.0035.0026.0262.02.0039.0029.0262.02.0034.0026.0267.02.0029.0022.0276.02.002.0015.0273.02.0032.0024.0087.0064.0008.0005.018.0134.0022.0016.0089.0065.0019.0015.017.0124.0024.0018L10,44.245l.002.0015.0167.0122.0025.0019.0086.0063.0029.0021.0167.0122.0019.0014.0088.0064.0027.0019.0272.02.0035.0026.0271.02.0025.0018.0278.02.0026.002.0274.02.0031.0022.0272.02.0032.0023.0089.0064,0,0,.0188.0134.0019.0014.0092.0066.0019.0013.0171.0122.0024.0018.0091.0064.0018.0013.0179.0127.0015.0011.009.0064.0029.002.016.0114.0029.0021.0087.0061.0028.002.0278.02.0026.0019.028.02.0027.0019.0276.0193.0032.0023.0276.0193.0029.002.009.0063h0l.0182.0126.0037.0026.0085.0059.0023.0016.0164.0114.0033.0023.0086.0059.0029.0021.0164.0113.0026.0019.009.0061.0026.0018.0172.0119.0018.0012.0093.0064.002.0015.018.0123.0016.0011.0089.0061.0031.0021.0171.0117.0018.0013.0082.0056.0046.0031.0268.0184.0033.0022.0275.0187.0034.0024.0277.0187.0032.0022.0089.006.0011.0007.0177.012.0033.0022.0092.0062h0l.0185.0124.0033.0023.0087.0058.0033.0022.0164.011.0024.0016.0095.0064.0014.0009.0181.0121.002.0014.0092.0061.0029.0019.0168.0112.0024.0017.009.0059.003.002.0185.0124,0,0,.0088.0059.0039.0026.0273.018.0041.0028.0081.0053.0016.0011.017.0112.0045.0029.0269.0177.0042.0028.0083.0055.0028.0018.0157.01.0046.003.0083.0054.0023.0015.0173.0113.0028.0018.0089.0058.0032.0021.0158.01.0037.0024.0086.0056.0036.0023.016.01.0029.0019.0089.0057.0034.0022.0167.0108.0024.0016.0092.0059.0026.0017.0194.0125h0l.0089.0058.0038.0024.028.018.0031.0019.0282.0181.0037.0024.0283.018.0028.0018.0285.018.0035.0023.0091.0057.0011.0007.0182.0116.003.0018.0091.0058.0026.0016.0171.0108.0029.0018.0093.0059.0021.0013.0186.0117.0013.0008.01.0061.0024.0015.0175.011.0025.0016.0092.0057.0029.0018.0291.0181.0025.0016.0292.0182.0028.0017.0294.0182.0022.0013.0291.018.0033.002.0281.0173.0042.0026.0087.0053.0024.0015.0176.0108.0026.0016.01.0059.0013.0007.0191.0117.0019.0012.01.0059.0019.0011.0189.0116.0014.0008.01.0061.0015.0009.0307.0186.0015.0009.03.0183.0021.0013.03.0183.0015.0009.0307.0184.0015.0009.03.0181.0024.0014.03.0179.0022.0013.03.0177.0026.0016.01.0056.0024.0015.0181.0107.0021.0012.01.0059.0013.0007.02.0121,0,0,.01.006.0016.001.031.0181.0014.0008.0306.0179.0027.0016.03.0174.0023.0014.03.0173.0029.0017.03.0173.0022.0013.03.0172.003.0017.03.0174.0018.0011.01.0057.002.0011.0189.0108.0019.0011.01.0057.0016.0009.0193.011.0017.001.01.0056.0023.0013.02.0112.0007,0,.01.0058.0018.001.03.0173.003.0016.03.0171.0018.001.03.017.0031.0018.03.0167.0028.0015.03.0168.0028.0015.031.0172.0014.0008.01.0058.0009,0,.02.0112.0014.0008.0106.0058,0,0,.0324.0177.0014.0008.0195.0107.002.0011.01.0053.0028.0015.03.0167.0023.0012.0308.0168.0023.0012.0306.0166.0026.0015.0309.0166.0019.0011.031.0166.0025.0014.0312.0167.0017.0009.01.0055.0012.0007.02.0108.0014.0008.01.0055.0013.0007.02.0105.0021.0011.01.0052.0024.0013.0191.01.0019.001.01.0052.003.0016.0188.01.0018.0009.0091.0048.0043.0023.03.0155.0034.0018.03.0158.0028.0015.0306.0159.0028.0015.03.0156.0037.002.01.005.0011.0006.0189.01.0037.002.0094.0048.0033.0017.0181.0093.0022.0012.01.0053.0012.0006.0208.0107.001.0005.01.0053.0027.0013.019.01.0019.001.01.0051.0027.0014.0306.0156.0034.0017.0307.0156.0025.0012.0308.0156.0032.0016.03.0153.0033.0017.03.0149.0043.0022.0094.0047.0013.0006.02.01.0023.0012.01.005.002.001.019.0094.0029.0015.01.0049.0026.0012.0189.0094.0024.0012.01.0048.0028.0015.02.01.0013.0006.01.0051.002.001.0314.0154.0032.0016.0311.0152.0024.0012.031.0151.0036.0017.03.0148.0031.0015.0309.015.0032.0015.0313.0151.0025.0012.01.0049.0019.0009.0194.0093.0026.0012.01.0049.0019.0009.0324.0155.0016.0007.02.0095.0022.0011.01.0047.003.0014.0309.0146.0037.0018.0306.0144.0034.0016.0311.0146.0028.0013.0312.0146.0032.0015.0306.0142.0041.0019.01.0045.0015.0006.02.0092.003.0014.01.0046.0024.0011.0195.009.0023.0011.01.0047.0023.0011.0193.0088.0025.0012.01.0046.003.0014.0192.0088.0023.001.01.0045.0036.0016.0194.0089.0015.0006.01.0044.0042.0019.03.0138.0038.0017.03.0138.0041.0019.03.0135.0044.002.0307.0137.0036.0016.01.0045.0015.0007.019.0084.0043.0019.0092.0041.0052.0023.0153.0068.005.0023.0092.004.0044.002.0164.0072.0044.002.0093.0041.0045.0019.0169.0075.0039.0017.01.0042.0041.0018.02.0087.0007,0,.01.0043.0041.0018.0306.0134.0043.0018.03.0132.0042.0018.0311.0135.0032.0014.01.0044.0005,0,.02.0086.0046.002.0095.0041.0023.001.0192.0082.0033.0014.01.0042.0042.0017.017.0073.0042.0018.0095.004.0041.0018.0172.0073.004.0017.0093.0039.0048.0021.0166.0069.0043.0019.0093.0039.0043.0018.0188.0079.0022.0009.0095.004.0047.002.0308.0129.0035.0015.0312.013.0042.0017.0306.0127.0044.0018.01.0041.002.0008.0187.0077.0048.002.01.0039.0031.0013.0175.0072.0048.002.0093.0038.0049.002.0156.0064.0055.0023.009.0036.0053.0022.0157.0064.0049.002.009.0036.006.0025.0134.0054.0072.0029.0083.0034.006.0024.0164.0066.0037.0015.0095.0038.005.0021.0165.0066.0045.0018.0089.0035.0057.0023.0295.0118.0056.0023.0089.0035.0039.0016.017.0067.005.002.0093.0037.0038.0015.0168.0067.0058.0023.0088.0034.0049.002.0164.0064.0047.0019.0093.0036.0048.0019.0165.0065.0048.0019L15.55,47.3l.0053.0021.0156.0061.0052.002.0093.0036.0046.0018.0173.0067.0041.0016.0094.0036.0049.0019.0158.0061.0056.0022.0083.0032.0066.0026.015.0057.0054.0021.0089.0035.0055.002.03.0116.0052.0019.03.0114.0058.0023.009.0034.0048.0018.0161.0061.0055.0021.0093.0035.0047.0018.0156.0059.0061.0023.0086.0032.0065.0024.0149.0057.0052.0019.0094.0035.0051.0019.0159.0059.0052.002.0092.0034.0055.002.0159.006.0051.0019.0092.0034.0055.002.0145.0054.0065.0024.0087.0032.0062.0023.0157.0058.005.0018.009.0033.006.0022.0084.0031.0123.0045.0087.0032.0062.0023.0088.0032.0058.0021.0152.0055.0058.0021.0087.0032.0064.0023.0145.0052.0063.0023.0088.0032.0046.0017.0174.0062.0042.0016.01.0034.0053.0019.0157.0056.0057.0021.009.0032.0057.002.0153.0055.0057.002.0091.0033.0057.002.0151.0054.0061.0021.0091.0033.0051.0018.0167.0059.0048.0017.0089.0031.0062.0022.0164.0058.0044.0015.0091.0032.0058.002.0124.0044.0087.003.0087.003.0063.0022.0088.0031.0124.0043.0082.0029.0065.0022.0088.0031.0064.0022.0143.0049.0066.0023.0087.003.0065.0022.0143.0049.0064.0022.0086.003.0072.0025.0135.0046.0068.0023.0087.003.0066.0022.0138.0047.0069.0024.0085.0029.0071.0023.0124.0043.0085.0028.0079.0027.0072.0024.0132.0045.0072.0024.0088.003.0066.0022.0126.0042.0083.0028.0085.0028.007.0024.0078.0026.0128.0042.0084.0028.0072.0024.0079.0026.0131.0044.007.0023.0088.0029.0067.0022.0137.0045.0065.0022.0094.0031.0067.0022.0109.0035.01.0032.0082.0027.0075.0025.0091.0029.0114.0038.0082.0026.0076.0025.0091.0029.01.0033.01.0031.0072.0024.0086.0028.0107.0034.01.0031.0076.0024.008.0026.01.0033.0105.0033.0073.0024.0083.0026.0094.003.0112.0036.0077.0024.0078.0025.0078.0025.013.0041.0077.0024.0078.0025.0078.0025.0134.0042.0069.0021.0084.0027.0076.0024.0134.0042.0068.0021.0087.0027.0076.0024.0108.0033.0093.0029.0087.0028.0073.0022.01.0032.01.0032.0084.0026.008.0024.0088.0027.011.0034.0086.0027.0081.0024.0082.0026.0111.0034.0092.0028.0081.0024.0077.0024.0115.0035.0091.0027.0082.0025.0079.0024.0074.0023.0133.004.0075.0023.0088.0026.0067.002.0139.0042.0068.0021.0091.0027.007.0021.0135.004.0074.0022.0083.0025.0074.0022.0119.0035.0088.0026.0087.0026.0073.0022.0105.0031.01.003.0082.0024.0076.0023.01.0029.01.003.0093.0027.0073.0021.01.0029.0092.0027.0105.003.007.002.01.0029.0082.0024.0118.0034.0068.002.0094.0027.0078.0022.0125.0037.007.002.0092.0026.0069.002.0134.0038.0079.0023.0078.0022.0078.0022.0133.0038.0077.0022.0083.0023.0074.0022.0138.0039.0068.0019.0088.0024.0075.0022.0136.0038.0068.0019.0092.0026.0073.002.0116.0032.009.0026.0085.0023.0079.0022.01.0027.0105.0029.009.0025.0076.0021.01.0028.0094.0025.01.0028.0073.002.01.0028.008.0022.012.0033.0069.0018.01.0026.0074.002.0128.0035.0075.002.0088.0024.0073.002.0136.0037.007.0019.01.0026.0062.0016.0143.0039.0067.0018.01.0025.0067.0018.0143.0038.0061.0017.01.0026.0066.0018.0141.0037.0066.0017.01.0026.0067.0018.0127.0033.0079.0021.0095.0025.007.0018.0107.0028.01.0026.01.0025.0069.0018.0107.0028.0087.0023.0105.0027.0075.002.0089.0023.0105.0027.0105.0027.0071.0018.0092.0024.0084.0021.0126.0032.0064.0017.01.0026.0063.0016.0142.0036.0068.0017.0094.0024.0068.0017.014.0036.0074.0018.0085.0022.0077.0019.014.0035.0065.0017.0094.0023.0072.0018.014.0035.0066.0017.0095.0023.0073.0018.0136.0034.0065.0016.01.0024.007.0018.0118.0029.0084.002.01.0025.0074.0018.0108.0027.008.0019.0111.0027.0073.0018.01.0025.0076.0018.0125.003.007.0017.01.0023.0072.0018.0134.0032.0072.0017.0095.0023.0067.0016.0141.0034.0069.0016.01.0024.0056.0014.015.0035.006.0014.0106.0025.0062.0015.0146.0034.0061.0015.01.0024.0064.0015.0145.0034.0061.0014.01.0024.0067.0016.014.0032.0062.0015.0106.0024.0063.0015.0135.0031.0061.0014.0118.0027.0063.0014.0124.0029.0062.0014.0125.0028.0066.0015.01.0024.0088.002.0117.0026.0068.0016.01.0022.0077.0017.0132.003.0064.0014.0111.0025.0054.0012.015.0033.006.0014.0108.0024.0059.0013.0149.0033.0059.0013.0111.0024.0057.0013.0153.0033.0052.0012.0111.0024.0063.0014.015.0032.0049.0011.0118.0026.0058.0012.0152.0033.0049.0011.0115.0024.0062.0014.014.003.0056.0012.0119.0025.0064.0014.0122.0026.007.0015.0118.0025.007.0015.0113.0023.0059.0013.014.0029.0063.0014.011.0023.0056.0011.0146.0031.0068.0014.0108.0022.0055.0012.0151.0031.0061.0013.011.0022.0057.0012.0149.0031.0062.0013.011.0022.0058.0012.0151.0031.0058.0011.011.0023.006.0012.015.003.0056.0012.0115.0023.0057.0011.0153.0031.0052.001.0113.0023.0063.0013.013.0025.0072.0015.0116.0023.0061.0012.0128.0025.0061.0012.0129.0025.0061.0012.0119.0024.0064.0012.0137.0027.006.0012.0119.0023.0048.0009.0155.003.0054.001.0123.0024.0048.0009.0156.003.0052.001.0125.0024.0045.0008.0159.0031.005.0009.0121.0023.0053.001.0159.003.0042.0008.0128.0024.0052.001.0158.0029.0041.0008.0127.0023.0056.0011.0159.0029L20,48.5676l.0139.0026.0045.0008.0167.0031.0018,0,.0149.0027.005.0009.0165.003h0l.0164.003.0053.001.014.0025.0028.0005.0161.0029.0052.0009.0136.0024.0033.0006.0162.0029.0049.0009.0135.0024.0036.0006.0162.0029.0048.0008.0133.0023.0039.0007.0162.0028.0049.0009.0124.0022.0052.0009.0156.0027.0052.0009.012.002.0054.001.0159.0027.0043.0007.0129.0022.0052.0009.0158.0027.0047.0008.0121.002.0059.001.0143.0024.0058.001.0124.0021.0058.0009.0149.0025.0028.0005.0149.0024.0057.001.0134.0022.0035.0006.016.0026.0056.0009.0123.002.0046.0008.0158.0025.0054.0009.0128.0021.0044.0007.0159.0025.0055.0009.0118.0019.0054.0009.0157.0025.0054.0008.012.0019.0054.0009.0159.0025.0047.0007.0122.0019.0057.0009.0157.0025.0048.0007.0124.0019.0057.0009.0157.0024.0043.0007.0126.0019.0059.0009.015.0023.0048.0007.0128.002.006.0009.0141.0021.0043.0007.0141.0021.006.0009.0131.002.004.0006.0158.0023.0057.0008.0122.0019.0048.0007.0154.0022.0063.001.0119.0017.0051.0007.0156.0023.0058.0008.0122.0018.0048.0007.0158.0023.0058.0008.012.0017.0053.0008.0158.0022.0052.0008.0122.0017.0054.0008.0158.0022.0051.0007.0125.0017.0053.0008.016.0022.0046.0006.0124.0018.0058.0008.0145.0019.0058.0008.0127.0018.0058.0008.0146.0019.0037,0,.0144.002.0062.0008.0123.0017.0059.0008.0148.0019.0054.0007.0135.0018.0036.0005.0165.0022.0047.0006.0134.0018.0044.0005.0161.0021.0053.0007.0125.0016.0049.0007.0159.002.0057.0007.0117.0015.0059.0008.0159.002.0049.0006.0123.0016.0056.0007.0161.002.0043.0005.013.0017.0055.0006.0163.0021.0034,0,.0138.0017.0051.0006.0165.002.0033,0,.0136.0017.0059.0007.016.0019h.0009l.0166.002.0049.0006.0151.0018.0022,0,.0168.002.0049.0006.0145.0017.0028,0,.0167.002.0049,0,.0137.0016.0038.0005.0166.0019.0047,0,.0141.0016.0034,0,.0169.0019.0043.0005.0137.0016.0045.0005.0166.0018.0042,0,.0135.0015.0046.0005.0168.0018.0036,0,.0138.0015.0052.0006.0162.0018.0044,0,.0129.0014.0056.0006.0163.0018.0033,0,.0142.0015.0051.0006.0163.0017H21.9l.0165.0017.0048.0006.0154.0015.002,0,.0169.0017.0049.0005.0142.0014.0033,0,.0167.0017.0049.0005.0139.0014.0037,0,.0168.0017.0045.0005.014.0013.0038,0,.0169.0017.0043,0,.0138.0013.0044.0005.0168.0016.0041,0,.0133.0013.0052.0005.0164.0015.0043,0,.0133.0013.0054.0005.0163.0015.0039,0,.0136.0012.0053.0005.0166.0015.0031,0,.014.0013.0059.0005.015.0014.0032,0,.0153.0013.0055.0005.0153.0014h.0018l.0173.0015.0044,0,.0153.0014.0023,0,.017.0014.005,0,.0137.0011.004,0,.0166.0014.0051,0,.0136.0011.0039,0,.0168.0013.0048,0,.0136.0012.0043,0,.017.0014.0039,0,.0141.0011.0044,0,.0171.0014.0031,0,.0151.0012.0038,0,.0175.0014.0024,0,.0153.0011.0044,0,.0171.0013.0027,0,.015.0011.0048,0,.0171.0013h0l.0172.0013.0047,0,.0153.0012h.0024l.0171.0013.0046,0,.0146.0011.0033,0,.0168.0012.0049,0,.0138.001.0042,0,.0166.0011.0049,0,.0138.0009.0041,0,.0169.0012.0045,0,.0136.0009.0047,0,.0171.0011.0034,0,.0143.001.0048,0,.0169.0011.0033,0,.0146.0009.0047,0,.0172.0011.0023,0,.0154.0009.0045,0,.0174.0011h.0016l.0158.0009.0051,0,.0166.001h.0013l.0166.001.0051,0,.0153.0009h.0022l.0171.001.005,0,.0149.0008.0026,0,.0174.0009.0044,0,.0149.0008.0031,0,.0172.0009.0044,0,.0148.0008.0032,0,.0173.0009.0043,0,.0143.0008.004,0,.0172.0009.0041,0,.0141.0007.0044,0,.0175.0009h.0026l.0155.0008.004,0,.0175.0008h.0027l.015.0007.0048,0,.0174.0008h.0015l.0163.0008.0044,0,.0177.0008h0l.999.0444h0l.0177.0007.0051,0,.0138.0006h.0044L24.4484,49h.0038l.014.0006.0055,0,.0152.0006h.0025l.0176.0007.0048,0,.0134.0005.0052,0,.0172.0007h.0034l.0145.0005.0055,0,.0138.0006h.004l.0175.0006.0042,0,.0139.0005.0053,0,.0169,0h.0006l.0176.0006h.005l.0136,0h.0048l.0172.0006H24.71l.0137,0,.0054,0,.0146.0005h.0033l.0173.0005h.0051l.013,0h.0053l.0173.0005h.0026l.0151,0,.0055,0,.0143,0h.0033l.0177.0005h.0042l.0139,0,.005,0,.0167,0h.001l.0174,0h.0054l.013,0h.0052l.0173,0h.0032l.0143,0h.0057l.0137,0h.0042l.0168,0h.0057l.0125,0h.0054l.0173,0h.0024l.0155,0h.0051l.0138,0h.0041l.0174,0h.0043l.0136,0h.0055l.0155,0h.002l.0172,0h.0234l.0173,0h.0038l.0139,0h.0055l.0141,0h.0037l.0172,0H25.77l.0169,0h.0052l.0124,0h.006l.0153,0h.0039l.015,0H25.85l.0126,0h.0051l.0168,0H25.89l.0127,0h.0061l.0137,0h.0036l.0167,0h.006l.0119,0h.006l.0167,0h.0035l.0139,0h.0059l.013,0h.0046l.0168,0,.0054,0,.0122,0,.006,0,.0148,0h.0039l.0156,0h.0057l.0121,0,.0058,0,.0165,0h.0047l.0129,0h.006l.0139,0H26.18l.0168-.0005h.0055l.0128,0H26.22l.0169-.0005H26.24l.0141-.0005h.006l.0118,0,.0061,0,.016,0,.0061,0,.0115,0,.0064,0,.0139,0h.0048l.0148-.0005.0069,0,.0111,0,.0061,0,.0163-.0006.0056,0,.0116,0,.007,0,.0115,0,.0056,0,.016-.0006.0069,0,.0105,0,.0071,0,.0149-.0006.006,0,.012-.0005.0073,0,.011,0,.0061,0L26.5472,49l.0058,0,.0116-.0005.0065,0,.0121-.0005.008,0,.0133-.0006.0067,0,.0108-.0005.0067,0,.0161-.0007.005,0,.0123,0,.0066,0,.0121-.0005.0051,0,.0161-.0008.0064,0,.0113-.0005.0064,0,.0137-.0006.0075,0,.0121-.0006.0067,0,.0111-.0006.0064,0,.0159-.0008.0064,0,.0105-.0005.0076,0,.0109-.0006.009-.0005.0126-.0007.0076,0,.01-.0006.007,0,.014-.0008.009-.0005.0095-.0005.008,0,.01-.0005.007-.0005.0152-.0009.0077,0,.01-.0006.0078,0,.0122-.0008L27,48.9764l.0114-.0007.0078-.0005.01-.0006.0075-.0005.0154-.0009.0067,0,.01-.0007.0074,0,.0113-.0007.007,0,.0147-.001.0064,0,.0108-.0007.0069-.0005.0143-.001.0076-.0005.0108-.0007.0074,0,.01-.0007.0067-.0005.0153-.001.0075-.0005.01-.0007.0074-.0006.0124-.0008.008-.0006.0119-.0009.0075-.0005.01-.0007.0075-.0006.0152-.0011.0067-.0005.01-.0007.0073-.0006.0109-.0008.0082-.0006.0132-.001.0081-.0006.0089-.0007.008-.0006.012-.0009.01-.0008.01-.0008.0081-.0006.0093-.0007.0075-.0006.0152-.0012.0074-.0006.0095-.0008.008-.0006.01-.0009.0114-.0009.01-.0008.0087-.0007.0085-.0007.0082-.0007.015-.0013.0073-.0006.0094-.0007.0081-.0007.0094-.0008.0105-.0009.012-.0011.0077-.0006.0091-.0008.0081-.0007.0105-.0009.0119-.0011.0092-.0008.0084-.0007.0089-.0008.0078-.0007.0148-.0014.0079-.0007.0093-.0008.0077-.0007.01-.001.0109-.001.0106-.0009.0077-.0008.01-.0009.0074-.0006.0151-.0015.0076-.0007.0088-.0008.0088-.0008.0083-.0008.0118-.0012.0111-.001.0083-.0008.0086-.0009.0081-.0008.01-.0009.0126-.0013.0089-.0008.0082-.0009.009-.0009.0078-.0007.0147-.0015.0083-.0008.0084-.0009.0086-.0009.0094-.0009.0114-.0012.01-.001.0085-.0009.0082-.0009.0087-.0009.0087-.0009.0147-.0015.0072-.0008.0094-.001.0068-.0007.0164-.0017.0074-.0008.0093-.001.0068-.0007.01-.0011L28.14,48.88l.0179-.0019.0064-.0007.01-.0011.0066-.0007.0331-.0037.0069-.0008.01-.001.0064-.0007.0175-.002.0062-.0007.01-.0011.0067-.0008.01-.0011.0035,0,.02-.0023.0062-.0007.01-.0011.0068-.0008.0212-.0025.0019,0,.0107-.0013.0054-.0006.0105-.0013.0048-.0005.0193-.0023.0055-.0007.01-.0012.0058-.0007.0342-.0041.0058-.0007.01-.0013.0057-.0007.02-.0024.0037-.0005.0109-.0013.005-.0006.011-.0014.0017,0,.0223-.0028.0051-.0006.0106-.0014.005-.0006.0351-.0045.0051-.0006.0107-.0014.0044-.0006.02-.0026.0046-.0006.0109-.0014.0046-.0006.0356-.0047.0045,0,.0112-.0015.0033-.0005.0366-.0049.0043-.0005.0365-.005.0034,0,.0112-.0016.0047-.0006.0351-.0048.0051-.0007.0105-.0015.0046-.0006.0216-.003.0027,0,.0115-.0016.004-.0006.0362-.0051.0038-.0006.0116-.0016.003,0,.0371-.0053.0035,0,.0384-.0056.0012,0,.0125-.0018.0024,0,.0379-.0056.0026,0,.0124-.0019h.0008l.0393-.0059.0024,0,.0385-.0058.0016,0,.013-.002h0l.04-.0061.002,0,.04-.0062h0l.0127-.002.0023,0,.0392-.0062h0l.0539-.0086.0009,0,.0943-.0154h.0008l.0537-.009H29.56l.0944-.016h.0006l.04-.0069.0009,0,.0133-.0023h0l.04-.0069.0021,0,.0532-.0094h0a24.3628,24.3628,0,0,0,7.9915-2.9386l.0009,0,.0106-.0062.0018-.0011.01-.006a2.5,2.5,0,1,0-2.5224-4.3171,19.4223,19.4223,0,0,1-10.6844,2.63l-.9991-.0444A19.5435,19.5435,0,0,1,7.0531,33.24,2.4991,2.4991,0,0,0,4.93,31.8676ZM35.9745,2.6223A2.5,2.5,0,0,0,34.68,7.3235a19.5142,19.5142,0,0,1,6.9626,28.11A2.5,2.5,0,0,0,45.78,38.2405,24.341,24.341,0,0,0,49.44,29.644v0l.0079-.0372v0c.0119-.0563.0235-.1124.035-.1689v0L49.49,29.4v0l.0113-.0563h0l.0074-.0373,0-.0007.0073-.0372v-.0005l.0181-.0935,0-.0011.0071-.037,0-.0007.007-.0373v0l.0176-.0944h0l.0069-.0377v0l.0068-.0377h0l.01-.0567v0l.0068-.0378v0l.0066-.0374,0-.0011.0064-.0369,0-.0013.0064-.0369,0-.0012.003-.0174,0-.0013.0063-.0369,0-.0013.0063-.037,0-.0011.0062-.0369,0-.0016.003-.0177v-.0006l.0031-.0188v0l.003-.0183,0-.001.006-.0367,0-.002.0059-.0363,0-.002.0059-.0365,0-.0018.0027-.017,0-.0015.0029-.0183,0-.0011.0027-.0171,0-.0021.0057-.0364,0-.0019L49.69,28.28l0-.0023.0027-.0178h0l.0028-.0183,0-.0022.0025-.0166,0-.0018.0027-.0184v-.0006l.0026-.0172,0-.0026.0053-.0357.0005-.0032.0052-.0353,0-.0034.0024-.0164,0-.0012.0026-.0179,0-.0028.0023-.0159,0-.0023.0026-.0178,0-.0021.0023-.0162,0-.0027.0051-.0358,0-.0031.0024-.0172v0l.0025-.018,0-.0029.0023-.0163,0-.0017.0025-.0181,0-.002.0022-.0163,0-.0025.0025-.0183v0l.0024-.0174,0-.003.0048-.0356,0-.0034.0048-.0357,0-.0026.0022-.0167,0-.0015.0024-.018,0-.0027.002-.0154,0-.0032.0024-.0179v-.001l.0021-.0166,0-.0037.0045-.035,0-.0039.0021-.016,0-.0017.0022-.0178,0-.003.002-.016,0-.0021.0023-.0181,0-.0021.002-.0157,0-.0035.0021-.0177,0-.0016.0019-.0156.0006-.0046.0042-.0352,0-.0031.002-.0168v-.0012l.0021-.0178,0-.0034.0018-.0154,0-.0027.002-.0177,0-.0027.0018-.0156,0-.0031.002-.0179,0-.0015.0019-.0162,0-.0038.004-.0351,0-.0043.0017-.015,0-.0027.002-.0176,0-.0033.0017-.0149,0-.0035.0018-.0172,0-.0037.0015-.0141.0005-.0047.0018-.0171,0-.0016.0017-.016,0-.0042.0017-.0163V27.12l.0018-.0172.0006-.0048.0014-.0142,0-.0033.0018-.0172,0-.004.0014-.0141,0-.0043.0017-.0171,0-.0033.0014-.0143.0005-.0048.0017-.0171,0-.0016.0016-.0161,0-.0044.0016-.0161V26.945l.0018-.0177,0-.0037.0015-.0154,0-.0028.0017-.0173,0-.0042.0013-.0136,0-.0048.0016-.0169,0-.0037.0013-.0138.0005-.0053.0016-.0169v-.0013l.0014-.0159.0005-.0053.0013-.0143,0-.0032.0016-.017,0-.0047.0012-.0137,0-.0042.0015-.0169,0-.0042.0013-.0144,0-.0038.0015-.0174,0-.0029.0013-.015,0-.0043.0015-.0171v-.0014l.0014-.0166,0-.0047.0013-.0151,0-.0024.0014-.0174,0-.0043.0011-.014,0-.0043.0014-.0173,0-.0031.0012-.0149,0-.0041.0014-.0177,0-.0014.0013-.0165,0-.0039.0028-.0354,0-.0043.0012-.0154,0-.0025.0013-.0172,0-.0048.001-.0141,0-.0036.0013-.0174,0-.0037.0011-.0145,0-.0044.0013-.0174v-.002l.0012-.0158,0-.0044.0012-.0168V26.28l.0013-.0175,0-.0046.001-.0142,0-.0038.0012-.0171,0-.0044.0009-.0141,0-.0042.0012-.0173,0-.0033.001-.0145,0-.0047.0012-.0174v-.0017l.001-.0158,0-.0051.0011-.0163v-.001l.0011-.0174,0-.0049.0009-.0146,0-.0032.0011-.0175,0-.0039.0009-.0146,0-.0039.001-.0174,0-.0035.0009-.0145,0-.0048.001-.0173v-.0014l.0009-.0162,0-.0049.0009-.0147,0-.0032.0009-.017,0-.0051.0008-.0139,0-.0039.0009-.0171,0-.0046.0007-.0136,0-.0048.0009-.0174,0-.0026.0008-.0151,0-.0049.0009-.0173V25.786l.0008-.0162,0-.0051.0007-.0149,0-.0028.0008-.0174,0-.0044.0008-.0146v-.0037L49.95,25.69l0-.0042.0006-.014,0-.0046.0008-.0174,0-.003.0007-.0149,0-.0048.0008-.0176h0l.0007-.0175,0-.0055.0006-.0132,0-.0049.0007-.0171,0-.0047.0005-.013,0-.0061.0006-.014v-.0037l.0007-.0169,0-.0057,0-.0123,0-.006.0007-.0163,0-.0058,0-.0122,0-.0064,0-.0125,0-.0052.0006-.0163,0-.0065,0-.0114,0-.0068.0005-.0159,0-.006,0-.0115,0-.0074,0-.0108,0-.0069.0005-.0155,0-.0078,0-.01,0-.0077,0-.0123,0-.0094,0-.0112,0-.0082,0-.0094,0-.0078,0-.0155,0-.0075,0-.01,0-.0081,0-.011,0-.01,0-.0118,0-.0084,0-.0092,0-.0082,0-.0142,0-.0093,0-.0087,0-.0088,0-.0086,0-.0137,0-.01,0-.009v-.0078l0-.01,0-.0071,0-.0172V24.982l0-.01,0-.0062,0-.0193v-.0052l0-.01v-.0073l0-.01v-.0065l0-.0182v-.0228l.0005-.0354v-.0218l0-.0192v-.0352l0-.0224V24.711l0-.0226V24.67l0-.0382v-.0182l0-.0385v-.1579l0-.0411v-.0007l0-.0556v-.0012l0-.0411v-.0149l0-.0415V24.22l-.0013-.0979v0a24.3592,24.3592,0,0,0-3.3519-11.98l-.0007-.0011-.0264-.0451,0-.0006-.02-.0337v0c-.0248-.0418-.0494-.0832-.0745-.125l0-.0006-.0272-.0451v0l-.02-.0338,0,0-.048-.0791,0,0-.0553-.09h0l-.02-.0332-.0007-.0012-.02-.0327,0-.0007L46.3,11.6078l0,0-.02-.0329-.0007-.0012-.0206-.0329,0,0-.0066-.0106-.0011-.0017-.02-.0317-.001-.0015-.0206-.0326,0-.0005-.0066-.0106-.0009-.0014-.02-.0314-.0014-.0022-.0065-.01,0,0-.0206-.0324-.0013-.002-.02-.0313-.001-.0016-.0064-.01-.0014-.0022-.02-.0311-.0011-.0017-.02-.0319L46.08,11.26l-.0069-.0107,0-.0006-.0208-.0321-.001-.0016-.0279-.043-.0013-.002-.02-.03L46,11.1372l-.0064-.01-.0009-.0013-.0131-.02-.0009-.0014-.0064-.01-.0017-.0026-.02-.03L45.95,11.06l-.0064-.01-.0009-.0014-.02-.0307-.0019-.0029-.02-.03-.0013-.0021-.0062-.0092L45.89,10.97l-.0194-.0291-.002-.003-.0063-.0094-.0009-.0014-.0128-.0191-.0015-.0023-.0063-.0094-.0021-.0031-.0194-.0289-.0024-.0036-.006-.0089-.0018-.0027-.0117-.0174-.0021-.003L45.79,10.82l-.0028-.0042-.0189-.0279-.0027-.004-.0059-.0087-.0023-.0034-.0126-.0185-.0007-.001-.0064-.0094-.002-.003-.02-.0286-.0027-.0038-.0061-.0089-.0018-.0027-.0135-.02,0,0-.0059-.0086-.003-.0044-.0059-.0086-.0013-.0018-.0119-.0173-.0027-.0039-.0057-.0083-.0032-.0046-.0191-.0277-.0025-.0036-.006-.0086-.0024-.0035-.0114-.0165-.0022-.0031-.006-.0087L45.6,10.5429l-.02-.028-.0025-.0036-.0062-.0089-.0023-.0033-.011-.0156-.0028-.004-.0057-.0082-.0033-.0047-.0056-.008-.0025-.0036-.0106-.015-.0035-.0049-.0054-.0077-.0035-.0051-.01-.0138-.0033-.0048-.0057-.0079-.0031-.0045-.006-.0084-.0017-.0025-.0112-.0158-.0035-.0049-.0057-.008-.0032-.0045-.0115-.0161-.0017-.0025-.0057-.008-.0035-.0049-.0056-.0079-.003-.0042-.0107-.0149-.0028-.004-.0058-.008-.0033-.0046-.0194-.0271-.0029-.0041-.0059-.0081-.0032-.0046-.01-.0141-.0033-.0046-.0056-.0078-.0036-.005-.0055-.0075-.0038-.0054-.0095-.013-.0037-.0052-.0056-.0076-.0034-.0048-.01-.0135-.0037-.0051-.0053-.0074L45.3,10.1217l-.0053-.0073-.0053-.0073-.0076-.01-.0042-.0058-.0054-.0074-.004-.0054-.0088-.0121-.0044-.006-.0054-.0074-.0039-.0052L45.24,10.04l-.0034-.0046-.01-.0134-.0041-.0055-.0052-.0071-.0041-.0056-.0062-.0083-.0071-.01-.0052-.007-.0043-.0058-.0052-.0072L45.181,9.96l-.0082-.0111L45.168,9.942l-.005-.0067-.0047-.0063-.005-.0068-.004-.0053-.01-.0129-.0038-.0051-.0054-.0073-.0042-.0057-.0089-.0119-.0045-.0059-.0052-.0071-.0043-.0057-.0051-.0068L45.0916,9.84l-.0066-.0088-.0044-.0059-.0054-.0072-.0043-.0057-.0085-.0113-.0047-.0063-.0055-.0072-.0043-.0058-.005-.0067L45.037,9.767,45.03,9.7575l-.005-.0066-.005-.0065-.0049-.0065L45.01,9.7316,45.0017,9.72l-.0046-.0062-.005-.0065-.0049-.0064-.0058-.0076-.0068-.009-.0055-.0072-.0051-.0066-.0048-.0064-.0047-.0062-.0086-.0112-.0044-.0058-.0056-.0073-.0045-.0059-.0057-.0073-.0067-.0087-.0062-.0081-.0043-.0056-.0058-.0075-.0044-.0058L44.89,9.5738l-.0042-.0054L44.88,9.5612l-.0048-.0061-.006-.0079-.0038-.0049-.0088-.0113-.0045-.0058-.0057-.0074-.004-.0052-.0084-.0108-.0045-.0058-.0063-.0081-.0042-.0053-.0064-.0083L44.809,9.47,44.8,9.458l-.004-.0052L44.79,9.4453,44.7854,9.44l-.0092-.0118-.002-.0025-.0078-.01L44.7622,9.41l-.0063-.008-.0038-.0048-.0091-.0116L44.7388,9.38l-.0058-.0073-.0044-.0056-.0063-.008-.0061-.0077-.0068-.0086-.0044-.0056L44.7,9.3305l-.0048-.0062-.0088-.011-.0044-.0055-.0057-.0073-.0046-.0058-.0063-.0079-.0042-.0052-.0086-.0109-.0042-.0052-.0064-.008-.0039-.0049-.0093-.0117-.0035-.0043-.0066-.0084-.0042-.0052-.0064-.008-.004-.0049-.0092-.0115-.0039-.0049-.0064-.008-.004-.0049-.0082-.01-.0046-.0057-.0067-.0083-.0045-.0055L44.55,9.1431l-.0037-.0046-.0093-.0115-.0043-.0053-.0061-.0076-.0043-.0052L44.5147,9.1,44.51,9.0941l-.0076-.0093L44.4984,9.08l-.0063-.0077-.0041-.005-.0094-.0116L44.4747,9.05l-.0061-.0075-.0045-.0056-.0067-.0082-.005-.0061-.008-.01L44.44,9.008l-.0059-.0072L44.43,8.9953l-.0088-.0107-.0046-.0056L44.41,8.9714l-.0045-.0054-.0064-.0078-.0038-.0046-.01-.0116-.0038-.0046-.0069-.0083-.0039-.0048-.0093-.0112-.0036-.0044L44.3515,8.9l-.0044-.0053-.0063-.0076-.0043-.0052-.009-.0108-.005-.0061-.0055-.0066-.0046-.0054-.0077-.0093L44.3,8.8383l-.0074-.0089-.0044-.0052-.0063-.0075-.004-.0049-.01-.0116-.0036-.0042-.0069-.0083-.0042-.005-.0083-.01-.0019-.0024-.01-.0116-.0044-.0052-.0065-.0077-.004-.0048-.01-.0115-.0038-.0045-.0066-.0078-.0043-.0052-.0071-.0083L44.1836,8.7l-.01-.0116L44.17,8.6837l-.0068-.0081-.004-.0046-.01-.0117-.0029-.0034-.0076-.0089-.0042-.005-.0074-.0087L44.1242,8.63l-.01-.0119-.0033-.0039-.0078-.0091L44.1,8.6011,44.09,8.59l-.003-.0035-.0082-.01-.0038-.0044-.0076-.0088L44.0642,8.56l-.01-.0118-.0034-.004-.007-.0082-.0043-.0049-.008-.0093-.004-.0047-.0085-.01-.0041-.0048-.0072-.0082-.0034-.004-.01-.0116-.0035-.0041-.0076-.0087-.0035-.0041-.0088-.01-.002-.0024-.01-.0118-.004-.0045-.0067-.0077L43.9432,8.42l-.01-.0113-.0029-.0034-.0078-.0088-.0041-.0047-.0079-.0091L43.908,8.38l-.01-.0118-.0038-.0043-.0071-.0081-.0039-.0045-.009-.01L43.87,8.3361l-.0078-.0088-.0041-.0047-.0069-.0078-.004-.0045-.01-.0115-.0031-.0035-.0079-.009-.0037-.0042-.0093-.0105L43.81,8.2688l-.0093-.0105-.0039-.0044-.0076-.0086-.0034-.0038-.01-.0114-.0036-.0041-.0075-.0083-.0038-.0044-.0083-.0092-.0032-.0036-.01-.011-.0037-.0042-.0077-.0086-.0033-.0037-.0107-.012-.0021-.0022-.009-.01L43.7,8.145l-.01-.0106-.0013-.0015-.011-.0122-.003-.0033-.0083-.0092-.0033-.0037-.0106-.0117L43.65,8.09l-.0085-.0095-.0037-.0041-.0082-.009-.003-.0033-.0106-.0117-.0032-.0035L43.605,8.04l-.0038-.0042-.01-.0108-.0024-.0026-.0093-.01-.0039-.0043L43.5683,8l-.0037-.0041-.01-.0111-.0039-.0042-.0076-.0083-.0037-.0041-.0094-.01-.0016-.0018-.0108-.0117-.0035-.0039-.008-.0087-.0035-.0037-.0105-.0115-.003-.0033-.0083-.0089-.0036-.0039-.009-.01-.0023-.0025-.0106-.0115-.0038-.0041-.0079-.0085L43.44,7.8607l-.011-.0118-.0017-.0019-.0095-.01-.0034-.0035-.0091-.01-.0021-.0022-.0112-.012-.0028-.003-.0086-.0092-.0034-.0037-.011-.0117L43.3652,7.78l-.01-.0105-.0039-.0042-.0081-.0087L43.34,7.7536l-.0109-.0117-.0028-.0029L43.3177,7.73l-.0033-.0035-.01-.0106-.0016-.0017-.0109-.0115-.0032-.0035L43.28,7.69l-.0031-.0033-.0112-.0118-.0019-.002-.01-.01-.0033-.0035-.01-.01L43.24,7.6473l-.0111-.0116-.0033-.0035-.0088-.0093L43.2138,7.62l-.0113-.0119-.0016-.0017-.01-.0107-.0025-.0026-.01-.0108-.0014-.0015-.0115-.012-.0026-.0027-.009-.0094L43.15,7.5534l-.0114-.0119,0,0-.011-.0114-.0031-.0032-.0106-.011-.0006-.0007-.0121-.0124L43.0991,7.5l-.01-.0107-.0021-.0022-.0235-.0243-.0027-.0027-.01-.01-.0024-.0025-.0119-.0122-.0006-.0006-.011-.0114-.0025-.0025L43.0109,7.41h0l-.0118-.0121-.0026-.0027-.01-.01-.0019-.0019-.012-.0123-.0008-.0008-.0112-.0114-.0022-.0023-.0105-.0106-.0016-.0017-.0117-.0118-.0024-.0025-.01-.01L42.92,7.3165l-.0117-.0119-.0006,0-.0111-.0113L42.8935,7.29l-.01-.0105-.0015-.0015L42.87,7.266l-.0023-.0023-.01-.01-.0025-.0025-.0239-.024-.0024-.0024-.0108-.0108-.0011-.0012-.0124-.0124-.0011-.0011-.0108-.0107L42.79,7.186l-.0237-.0236L42.7636,7.16l-.01-.01-.0024-.0024L42.74,7.1357l-.0016-.0016-.01-.01-.0028-.0028L42.7136,7.11l-.0006,0-.0122-.0122-.002-.0019-.01-.01-.0021-.0021-.0246-.0242L42.66,7.0569l-.0118-.0116,0,0-.0124-.0122-.0019-.0019-.0106-.01-.0022-.0022-.0245-.0239-.0018-.0019-.0115-.0112L42.5819,6.98l-.0127-.0124-.0007-.0006-.0117-.0114-.0017-.0017L42.53,6.93l-.0019-.0019-.0119-.0115,0,0-.0256-.0248L42.4891,6.89l-.0251-.0242-.0016-.0016-.0114-.011L42.45,6.8524l-.025-.024-.0022-.0021-.025-.024-.0013-.0011-.0114-.011-.0016-.0015-.0253-.0241-.0017-.0016-.0116-.011-.001-.001-.0126-.0119-.0016-.0016-.0107-.01-.0027-.0026-.0246-.0232L42.2893,6.7l-.0115-.0109-.001-.0009-.0128-.012-.0011-.0011-.0115-.0108L42.25,6.6621l-.0254-.0238-.0015-.0014L42.211,6.626,42.21,6.6248l-.0255-.0239-.0019-.0017-.0253-.0236-.0018-.0017-.0114-.0106-.0014-.0013-.0254-.0236-.0022-.002-.0112-.01-.0015-.0015-.0128-.0117-.0012-.0012-.0112-.01-.0024-.0022-.0252-.0232-.0021-.0019-.0117-.0108-.0009-.0008-.013-.0119-.001-.0009-.0118-.0108-.0019-.0018-.0256-.0234L41.98,6.4122l-.0118-.0107L41.9666,6.4,41.941,6.377l-.0022-.002-.0255-.0231-.002-.0018L41.9,6.34l-.0013-.0012-.0131-.0118,0,0-.0123-.011-.0022-.002-.0121-.011-.0005,0L41.8447,6.29l-.0012-.001-.0116-.01-.002-.0018-.0257-.023-.002-.0018L41.79,6.2413l-.0011-.001-.0131-.0116-.0013-.0012-.0116-.01-.0021-.0018-.026-.0232-.0014-.0013-.0117-.01L41.72,6.179l-.013-.0116-.0006,0-.0122-.0109-.0022-.0019-.0257-.0227L41.6644,6.13l-.0113-.01-.0017-.0015-.0132-.0116h0l-.0127-.0111-.0021-.0019-.0122-.0107L41.61,6.0821l-.0131-.0116-.0015-.0012-.0119-.0105-.0015-.0013-.026-.0227-.0026-.0022-.0119-.01-.0007-.0007L41.5278,6.01l-.0015-.0013-.0117-.01-.002-.0018-.0261-.0226-.0019-.0017-.0121-.01-.0011-.0009L41.458,5.95l-.0009-.0007-.0118-.01-.0026-.0022-.0263-.0226-.0011-.0009-.0128-.011-.0008-.0006-.0269-.0231-.0015-.0013-.0269-.0229-.001-.0008-.0125-.0107-.0014-.0012-.027-.0228-.0011-.001-.0273-.0231-.0008-.0006-.0132-.0112,0,0-.0275-.0231-.0013-.0011L41.22,5.7475l-.001-.0008-.0137-.0115,0,0-.0128-.0107-.0018-.0015L41.1638,5.7l-.0016-.0013L41.15,5.6884l-.001-.0008-.0272-.0226L41.12,5.6637l-.0274-.0227-.0006,0L41.0792,5.63l-.0015-.0012-.0269-.0223-.002-.0016-.0269-.0221-.0014-.0012-.0121-.01-.002-.0017L40.98,5.548l-.0021-.0016-.0126-.01-.0007-.0007L40.95,5.524l0,0-.0133-.0108-.0014-.0011L40.908,5.49l-.0014-.0011-.0135-.0109h0l-.0142-.0115,0,0-.0131-.0106-.0017-.0014-.0273-.0221-.0014-.001-.0125-.01-.0015-.0012-.0274-.022L40.792,5.396l-.0275-.022-.0013-.0011-.0124-.01-.0018-.0014L40.7216,5.34,40.72,5.3384l-.0132-.0105,0,0-.0142-.0112,0,0-.0133-.01-.0016-.0012L40.65,5.2826l-.0019-.0015-.013-.01-.0006,0L40.62,5.2592h0l-.0135-.0107-.0015-.0011-.0277-.0218-.0017-.0014-.0124-.01-.0015-.0012-.014-.011h0l-.0132-.01-.0025-.002-.0273-.0212-.0015-.0012-.0125-.01-.0017-.0012-.0276-.0215-.0018-.0013-.0135-.01h0l-.0145-.0112,0,0-.0131-.01L40.4155,5.1l-.0275-.0212-.0019-.0015-.0129-.01-.0009-.0007-.0141-.0108-.0007-.0006-.0132-.01-.0018-.0013-.0277-.0212-.0019-.0014-.0122-.0093-.002-.0015-.0278-.0212-.0016-.0012-.0281-.0213L40.24,4.9657l-.0127-.01-.0014-.0011-.0142-.0107h0l-.0138-.01-.002-.0016-.0135-.01,0,0-.0143-.0107-.0012-.0009-.0127-.01-.0021-.0016-.0276-.0207-.0024-.0017-.0131-.01-.0005,0-.0144-.0107-.0008-.0006-.013-.01-.0022-.0016-.0138-.01h0l-.0138-.01-.0024-.0017-.0122-.009-.0018-.0014-.0279-.0206-.0023-.0017-.028-.0206-.0015-.0011-.0131-.01-.0013-.0009-.0288-.0211-.001-.0007-.029-.0212-.0007,0-.0135-.01-.0016-.0011-.0283-.0206L39.8546,4.68,39.8262,4.66l-.0015-.0011L39.8121,4.65,39.81,4.648l-.0283-.02L39.78,4.6265l-.0134-.01-.001-.0007-.0288-.0207-.0015-.0011-.0285-.02-.0021-.0015-.0127-.009L39.69,4.5623l-.0286-.02L39.66,4.5406l-.0139-.01,0,0-.0143-.01L39.63,4.519,39.6172,4.51l-.0023-.0017-.028-.02-.0026-.0019-.0133-.0093-.0006,0-.0145-.01-.0013-.0009-.0131-.0092L39.54,4.4555l-.0284-.02-.0024-.0017-.0129-.009-.0012-.0009-.0146-.01-.0007-.0005-.0133-.0092-.0025-.0017-.0285-.02-.0016-.0011L39.42,4.372l-.0009-.0007-.0291-.02L39.3881,4.35l-.0291-.02-.0014-.001L39.3447,4.32l-.0021-.0014-.0288-.02-.0019-.0013-.029-.02-.0014-.001-.0133-.0091-.0017-.0011-.0293-.02-.0012-.0008-.0139-.0094-.001-.0007-.0148-.01-.0007-.0005-.0136-.0092-.002-.0013-.0289-.0195-.0022-.0015-.0135-.0091-.0007,0-.0149-.01-.0009-.0006-.0135-.0091-.0022-.0015-.0288-.0193-.0022-.0014L39.07,4.1336l-.0023-.0015-.0286-.0191-.0026-.0018-.0289-.0192-.0018-.0011-.0131-.0087-.0018-.0012-.0295-.02-.0015-.001-.03-.02-.0006,0-.0139-.0092-.002-.0013-.0293-.0193-.0016-.001L38.8683,4l-.0007,0-.015-.01L38.8515,3.99l-.0135-.0088-.002-.0013L38.8065,3.96l-.0016-.001L38.7912,3.95,38.79,3.95,38.7605,3.93l-.0023-.0015L38.729,3.91l-.0021-.0014L38.7138,3.9l-.0017-.0011-.03-.019-.0019-.0012L38.6669,3.87l-.0012-.0008-.0149-.01L38.65,3.8591l-.0132-.0084-.0026-.0016-.029-.0185-.0026-.0017L38.5887,3.82,38.5878,3.82l-.0153-.01,0,0-.0145-.0092L38.5561,3.8l-.03-.019L38.5249,3.78,38.51,3.7708l-.0006,0-.03-.0189L38.4777,3.75l-.03-.0188-.0014-.0008-.0142-.0089-.0009-.0006-.03-.0187-.002-.0013-.03-.0186-.0014-.0009-.0134-.0082L38.352,3.672l-.03-.0183-.002-.0012-.0141-.0087-.0007-.0005-.0154-.01-.0006,0-.0143-.0088-.0018-.0011-.03-.0184-.0018-.0012-.0136-.0083-.0016-.0009-.0152-.0093,0,0-.0144-.0088-.0023-.0014-.03-.018-.0021-.0013-.0132-.0081-.0021-.0012-.0295-.0178-.0029-.0017-.0127-.0077L38.1,3.5179l-.0145-.0087-.0025-.0015L38.07,3.5l-.0026-.0015L38.038,3.481l-.0031-.0019-.0138-.0083,0,0-.0153-.0091L38.0036,3.46l-.0135-.008-.0021-.0012-.03-.0179-.0021-.0013-.0137-.0081-.0014-.0008-.0155-.0092,0,0-.0141-.0083-.0028-.0017-.03-.0176-.0018-.0011-.0138-.0081-.0015-.0009-.0154-.009,0,0L37.83,3.3582l-.0023-.0013-.03-.0179-.0008,0L37.7821,3.33l-.0014-.0008L37.75,3.3114,37.7482,3.31l-.0306-.0177-.0015-.0009-.0141-.0081L37.7,3.2827,37.67,3.2651l-.0021-.0012-.0141-.0081-.0011-.0006-.0157-.0091h0l-.015-.0086L37.62,3.2364l-.03-.0173-.0025-.0014L37.5733,3.21l-.0015-.0008L37.5563,3.2l-.0006,0-.0141-.008-.003-.0017-.0143-.0081,0,0-.0154-.0087-.0018-.001-.0139-.0078-.0017-.001L37.46,3.1461l-.0024-.0013-.031-.0174,0,0-.0154-.0085-.0009,0-.0313-.0175L37.3773,3.1l-.0149-.0083-.0005,0-.016-.0089,0,0-.0148-.0082-.0021-.0011-.0308-.017-.002-.0011-.0143-.0079-.0011-.0006-.0158-.0087-.0006,0-.0147-.0081-.002-.0011-.0311-.0171L37.2148,3.01l-.0141-.0077-.002-.001-.0308-.0169-.0021-.0011-.0313-.017-.0011-.0006-.0148-.008-.0013-.0007L37.0861,2.94l-.0022-.0012L37.07,2.9314l-.0014-.0007-.0157-.0085-.001-.0005-.0106-.0057a2.4887,2.4887,0,0,0-1.0666-.2937Z" transform="translate(0.0221 0.0231)" fill="#05a5f0"/><path d="M10.82,28.5692l-.13-.4828A14.735,14.735,0,0,1,31.92,11.2836a2.5,2.5,0,0,1-2.3715,4.402A9.7349,9.7349,0,0,0,15.5192,26.7888l.13.4829A2.5,2.5,0,1,1,10.82,28.5692ZM16.83,36.1513a2.5,2.5,0,0,1,3.6043-2.8474A9.7339,9.7339,0,0,0,34.4808,22.2112l-.1231-.4583a2.5,2.5,0,1,1,4.8287-1.2976l.1231.4583A14.7338,14.7338,0,0,1,18.0541,37.7011,2.4938,2.4938,0,0,1,16.83,36.1513Z" transform="translate(0.0221 0.0231)" fill="#05a5f0"/></svg>